# xmcd
#
# Track frame offsets:
#	150
#	31575
#	58275
#	84705
#	118942
#	178942
#	186817
#
# Disc length: 2864 seconds
#
# Revision: 0
# Processed by: cddbd v1.5.2PL0 Copyright (c) Steve Scherf et al.
# Submitted via: EasyCDDAExtractor 9.0.0.1
#
DISCID=5f0b2e07
DTITLE=Heaven And Hell - Air Canada Center Toronto 22-03-07 Master Disc 2
DYEAR=2007
DGENRE=Hard Rock
TTITLE0=Computer God
TTITLE1=Falling Off The Edge Of The World
TTITLE2=The Shadow Of The Wind
TTITLE3=Die Young
TTITLE4=Heaven and Hell
TTITLE5=Applause
TTITLE6=Neon Knights
EXTD=
EXTT0=
EXTT1=
EXTT2=
EXTT3=
EXTT4=
EXTT5=
EXTT6=
PLAYORDER=
